simulation
nRows=56
nColumns=15
endheader
time  TH_x TH_y TH_z SC_y  SC_z  SC_x  AC_y  AC_z  AC_x  GH_y  GH_z  GH_yy  EL_x  PS_y
0.022169  0.000000  0.000000  0.000000  -23.542026  5.895227  -2.179499  37.465954  11.007904  -4.590575  68.248710  10.369500  -65.814292  6.279057  0.000000
0.022525  0.000000  0.000000  0.000000  -23.604016  5.881793  -2.210666  37.490805  11.081443  -4.612544  68.565806  10.421021  -66.165630  6.300183  0.000000
0.022881  0.000000  0.000000  0.000000  -23.667418  5.868204  -2.240424  37.504526  11.155621  -4.634059  68.896146  10.474235  -66.515759  6.320119  0.000000
0.023154  0.000000  0.000000  0.000000  -23.717025  5.857666  -2.262136  37.507893  11.212890  -4.650064  69.157488  10.515785  -66.783284  6.334835  0.000000
0.023427  0.000000  0.000000  0.000000  -23.767456  5.847025  -2.282814  37.505935  11.270364  -4.665516  69.423953  10.557590  -67.049339  6.349250  0.000000
0.023701  0.000000  0.000000  0.000000  -23.818678  5.836280  -2.302440  37.499702  11.327926  -4.680339  69.693621  10.599321  -67.313322  6.363535  0.000000
0.023974  0.000000  0.000000  0.000000  -23.870650  5.825430  -2.321034  37.490405  11.385447  -4.694490  69.964398  10.640672  -67.574581  6.377850  0.000000
0.024247  0.000000  0.000000  0.000000  -23.923317  5.814477  -2.338649  37.479348  11.442794  -4.707961  70.234130  10.681375  -67.832459  6.392329  0.000000
0.024680  0.000000  0.000000  0.000000  -24.008149  5.796898  -2.364783  37.461373  11.533111  -4.728002  70.654881  10.744096  -68.233125  6.415895  0.000000
0.025114  0.000000  0.000000  0.000000  -24.094345  5.779084  -2.389077  37.447085  11.622262  -4.746650  71.060688  10.804090  -68.621753  6.440428  0.000000
0.025547  0.000000  0.000000  0.000000  -24.181684  5.761059  -2.412001  37.440249  11.709970  -4.764298  71.446565  10.861214  -68.997137  6.466006  0.000000
0.025881  0.000000  0.000000  0.000000  -24.249641  5.747041  -2.429011  37.441498  11.776495  -4.777508  71.728806  10.903426  -69.277145  6.486358  0.000000
0.026215  0.000000  0.000000  0.000000  -24.318124  5.732918  -2.445620  37.448695  11.842140  -4.790613  71.998185  10.944351  -69.549479  6.507152  0.000000
0.026549  0.000000  0.000000  0.000000  -24.387108  5.718697  -2.461931  37.461491  11.906993  -4.803799  72.255862  10.984324  -69.814754  6.528244  0.000000
0.026883  0.000000  0.000000  0.000000  -24.456592  5.704381  -2.477993  37.479087  11.971177  -4.817220  72.503642  11.023709  -70.073788  6.549479  0.000000
0.027216  0.000000  0.000000  0.000000  -24.526593  5.689971  -2.493802  37.500353  12.034841  -4.830989  72.743777  11.062870  -70.327530  6.570709  0.000000
0.027550  0.000000  0.000000  0.000000  -24.597146  5.675467  -2.509306  37.523954  12.098142  -4.845169  72.978728  11.102134  -70.576981  6.591801  0.000000
0.027954  0.000000  0.000000  0.000000  -24.683143  5.657821  -2.527490  37.553637  12.174310  -4.862862  73.258948  11.150050  -70.873875  6.616952  0.000000
0.028357  0.000000  0.000000  0.000000  -24.770090  5.640024  -2.544883  37.582543  12.250384  -4.881130  73.538828  11.198789  -71.167431  6.641661  0.000000
0.028760  0.000000  0.000000  0.000000  -24.858062  5.622068  -2.561255  37.608967  12.326521  -4.899865  73.821157  11.248454  -71.458831  6.665915  0.000000
0.029163  0.000000  0.000000  0.000000  -24.947119  5.603944  -2.576387  37.631879  12.402800  -4.918923  74.107555  11.298962  -71.748857  6.689777  0.000000
0.029566  0.000000  0.000000  0.000000  -25.037293  5.585646  -2.590101  37.650961  12.479228  -4.938160  74.398486  11.350084  -72.037901  6.713374  0.000000
0.029970  0.000000  0.000000  0.000000  -25.128593  5.567170  -2.602274  37.666535  12.555751  -4.957453  74.693419  11.401501  -72.326024  6.736862  0.000000
0.030373  0.000000  0.000000  0.000000  -25.221005  5.548513  -2.612843  37.679423  12.632273  -4.976718  74.991094  11.452858  -72.613043  6.760407  0.000000
0.030805  0.000000  0.000000  0.000000  -25.321397  5.528289  -2.622400  37.691573  12.714277  -4.997329  75.311746  11.507530  -72.919526  6.785920  0.000000
0.031238  0.000000  0.000000  0.000000  -25.422969  5.507863  -2.630166  37.703526  12.795998  -5.017895  75.631378  11.561396  -73.223887  6.811826  0.000000
0.031671  0.000000  0.000000  0.000000  -25.525656  5.487243  -2.636245  37.716770  12.877308  -5.038502  75.947978  11.614227  -73.525703  6.838222  0.000000
0.032104  0.000000  0.000000  0.000000  -25.629391  5.466436  -2.640758  37.732475  12.958121  -5.059277  76.260079  11.665937  -73.824688  6.865140  0.000000
0.032537  0.000000  0.000000  0.000000  -25.734121  5.445448  -2.643821  37.751355  13.038396  -5.080370  76.566928  11.716575  -74.120745  6.892560  0.000000
0.032969  0.000000  0.000000  0.000000  -25.839809  5.424286  -2.645522  37.773613  13.118143  -5.101929  76.868528  11.766299  -74.413979  6.920414  0.000000
0.033455  0.000000  0.000000  0.000000  -25.959504  5.400340  -2.645861  37.802233  13.207049  -5.126823  77.201557  11.821290  -74.739992  6.952071  0.000000
0.033941  0.000000  0.000000  0.000000  -26.080375  5.376181  -2.644539  37.833901  13.295449  -5.152586  77.530418  11.875770  -75.063396  6.984029  0.000000
0.034341  0.000000  0.000000  0.000000  -26.180830  5.356121  -2.642163  37.861482  13.367963  -5.174512  77.799505  11.920494  -75.328286  7.010496  0.000000
0.034740  0.000000  0.000000  0.000000  -26.282108  5.335914  -2.638557  37.889668  13.440270  -5.197081  78.068162  11.965233  -75.592244  7.037044  0.000000
0.035140  0.000000  0.000000  0.000000  -26.384227  5.315559  -2.633646  37.917872  13.512415  -5.220276  78.337314  12.010068  -75.855613  7.063652  0.000000
0.035540  0.000000  0.000000  0.000000  -26.487203  5.295052  -2.627353  37.945673  13.584423  -5.244065  78.607619  12.055020  -76.118665  7.090325  0.000000
0.035940  0.000000  0.000000  0.000000  -26.591045  5.274393  -2.619607  37.972852  13.656298  -5.268413  78.879437  12.100058  -76.381596  7.117084  0.000000
0.036562  0.000000  0.000000  0.000000  -26.754235  5.241968  -2.604560  38.013956  13.767748  -5.307312  79.305077  12.170063  -76.790410  7.158962  0.000000
0.037184  0.000000  0.000000  0.000000  -26.919512  5.209173  -2.585746  38.054214  13.878727  -5.347420  79.733728  12.239735  -77.199336  7.201307  0.000000
0.037661  0.000000  0.000000  0.000000  -27.047603  5.183786  -2.568743  38.085243  13.963389  -5.378981  80.063471  12.292685  -77.512857  7.234186  0.000000
0.038138  0.000000  0.000000  0.000000  -27.176866  5.158190  -2.549525  38.117189  14.047605  -5.411294  80.393232  12.345081  -77.826268  7.267487  0.000000
0.038614  0.000000  0.000000  0.000000  -27.307269  5.132391  -2.528131  38.150616  14.131316  -5.444424  80.722332  12.396861  -78.139462  7.301233  0.000000
0.039091  0.000000  0.000000  0.000000  -27.438783  5.106394  -2.504597  38.185870  14.214482  -5.478446  81.050381  12.448033  -78.452378  7.335418  0.000000
0.039568  0.000000  0.000000  0.000000  -27.571387  5.080203  -2.478947  38.223063  14.297083  -5.513437  81.377306  12.498664  -78.765009  7.370015  0.000000
0.040301  0.000000  0.000000  0.000000  -27.777486  5.039537  -2.435348  38.283703  14.423054  -5.569284  81.878649  12.575733  -79.245537  7.423957  0.000000
0.041035  0.000000  0.000000  0.000000  -27.986149  4.998428  -2.386574  38.347546  14.547648  -5.627552  82.379219  12.651948  -79.725623  7.478673  0.000000
0.041286  0.000000  0.000000  0.000000  -28.058142  4.984263  -2.368632  38.369850  14.589938  -5.647989  82.550582  12.677804  -79.889745  7.497558  0.000000
0.041537  0.000000  0.000000  0.000000  -28.130474  4.970047  -2.349964  38.392183  14.632020  -5.668566  82.722143  12.703427  -80.053704  7.516537  0.000000
0.041788  0.000000  0.000000  0.000000  -28.203175  4.955778  -2.330494  38.414422  14.673854  -5.689167  82.893926  12.728678  -80.217381  7.535626  0.000000
0.042039  0.000000  0.000000  0.000000  -28.276272  4.941459  -2.310149  38.436472  14.715394  -5.709676  83.065917  12.753408  -80.380643  7.554846  0.000000
0.042289  0.000000  0.000000  0.000000  -28.349788  4.927087  -2.288865  38.458276  14.756592  -5.729982  83.238055  12.777477  -80.543359  7.574215  0.000000
0.042682  0.000000  0.000000  0.000000  -28.465576  4.904523  -2.253603  38.491881  14.820186  -5.761111  83.507118  12.813470  -80.796320  7.604843  0.000000
0.043074  0.000000  0.000000  0.000000  -28.582477  4.881837  -2.215786  38.525061  14.882646  -5.791254  83.775636  12.847087  -81.047226  7.635973  0.000000
0.043466  0.000000  0.000000  0.000000  -28.700511  4.859033  -2.175339  38.558223  14.943790  -5.820219  84.042762  12.877954  -81.295667  7.667680  0.000000
0.043858  0.000000  0.000000  0.000000  -28.819673  4.836117  -2.132250  38.591947  15.003448  -5.847902  84.307490  12.905777  -81.541252  7.700023  0.000000
0.044250  0.000000  0.000000  0.000000  -28.939942  4.813094  -2.086560  38.626888  15.061464  -5.874276  84.568774  12.930360  -81.783617  7.733044  0.000000
